<mxfile host="app.diagrams.net" modified="2022-01-07T08:09:10.256Z" agent="5.0 (Macintosh; Intel Mac OS X 10_15_7) AppleWebKit/537.36 (KHTML, like Gecko) Chrome/95.0.4638.69 Safari/537.36" etag="v0M0-NY5bH7S4wpW_8yP" version="16.2.2" type="github">
  <diagram id="ELG3nIPZtsuA4GLGCF9C" name="Page-1">
    <mxGraphModel dx="1186" dy="650" grid="1" gridSize="10" guides="1" tooltips="1" connect="1" arrows="1" fold="1" page="1" pageScale="1" pageWidth="850" pageHeight="1100" math="0" shadow="0">
      <root>
        <mxCell id="0" />
        <mxCell id="1" parent="0" />
        <mxCell id="Y7o6XOKcOERanXRaPvZE-1" value="" style="shape=image;html=1;verticalAlign=top;verticalLabelPosition=bottom;labelBackgroundColor=#ffffff;imageAspect=0;aspect=fixed;image=https://cdn4.iconfinder.com/data/icons/essential-app-2/16/record-round-circle-dot-128.png" parent="1" vertex="1">
          <mxGeometry x="350" y="30" width="40" height="40" as="geometry" />
        </mxCell>
        <mxCell id="Y7o6XOKcOERanXRaPvZE-2" value="" style="endArrow=classic;html=1;rounded=0;exitX=0.5;exitY=1;exitDx=0;exitDy=0;entryX=0.425;entryY=-0.067;entryDx=0;entryDy=0;entryPerimeter=0;" parent="1" source="Y7o6XOKcOERanXRaPvZE-1" target="Y7o6XOKcOERanXRaPvZE-4" edge="1">
          <mxGeometry width="50" height="50" relative="1" as="geometry">
            <mxPoint x="400" y="260" as="sourcePoint" />
            <mxPoint x="180" y="155" as="targetPoint" />
          </mxGeometry>
        </mxCell>
        <mxCell id="Y7o6XOKcOERanXRaPvZE-4" value="Enter system" style="rounded=1;whiteSpace=wrap;html=1;" parent="1" vertex="1">
          <mxGeometry x="320" y="140" width="120" height="60" as="geometry" />
        </mxCell>
        <mxCell id="Y7o6XOKcOERanXRaPvZE-5" value="" style="endArrow=classic;html=1;rounded=0;exitX=0.5;exitY=1;exitDx=0;exitDy=0;entryX=0.5;entryY=0;entryDx=0;entryDy=0;" parent="1" source="Y7o6XOKcOERanXRaPvZE-4" target="Y7o6XOKcOERanXRaPvZE-7" edge="1">
          <mxGeometry width="50" height="50" relative="1" as="geometry">
            <mxPoint x="400" y="260" as="sourcePoint" />
            <mxPoint x="380" y="250" as="targetPoint" />
          </mxGeometry>
        </mxCell>
        <mxCell id="Y7o6XOKcOERanXRaPvZE-7" value="" style="rhombus;whiteSpace=wrap;html=1;" parent="1" vertex="1">
          <mxGeometry x="360" y="250" width="40" height="40" as="geometry" />
        </mxCell>
        <mxCell id="Y7o6XOKcOERanXRaPvZE-8" value="" style="endArrow=classic;html=1;rounded=0;entryX=1;entryY=0.5;entryDx=0;entryDy=0;exitX=0;exitY=0.5;exitDx=0;exitDy=0;" parent="1" source="Y7o6XOKcOERanXRaPvZE-7" target="Y7o6XOKcOERanXRaPvZE-9" edge="1">
          <mxGeometry width="50" height="50" relative="1" as="geometry">
            <mxPoint x="350" y="270" as="sourcePoint" />
            <mxPoint x="300" y="270" as="targetPoint" />
          </mxGeometry>
        </mxCell>
        <mxCell id="Y7o6XOKcOERanXRaPvZE-9" value="Open file" style="rounded=1;whiteSpace=wrap;html=1;" parent="1" vertex="1">
          <mxGeometry x="180" y="240" width="120" height="60" as="geometry" />
        </mxCell>
        <mxCell id="GQBndkDP9qIrQhqpSyb7-4" value="New file" style="endArrow=classic;html=1;rounded=0;exitX=1;exitY=0.5;exitDx=0;exitDy=0;" parent="1" source="Y7o6XOKcOERanXRaPvZE-7" edge="1">
          <mxGeometry width="50" height="50" relative="1" as="geometry">
            <mxPoint x="520" y="260" as="sourcePoint" />
            <mxPoint x="500" y="270" as="targetPoint" />
          </mxGeometry>
        </mxCell>
        <mxCell id="GQBndkDP9qIrQhqpSyb7-5" value="Blank canvas" style="rounded=1;whiteSpace=wrap;html=1;" parent="1" vertex="1">
          <mxGeometry x="500" y="240" width="120" height="60" as="geometry" />
        </mxCell>
        <mxCell id="GQBndkDP9qIrQhqpSyb7-6" value="Edit object" style="rounded=1;whiteSpace=wrap;html=1;" parent="1" vertex="1">
          <mxGeometry x="320" y="410" width="120" height="60" as="geometry" />
        </mxCell>
        <mxCell id="GQBndkDP9qIrQhqpSyb7-7" value="" style="endArrow=classic;html=1;rounded=0;entryX=0;entryY=0;entryDx=0;entryDy=0;" parent="1" target="GQBndkDP9qIrQhqpSyb7-6" edge="1">
          <mxGeometry width="50" height="50" relative="1" as="geometry">
            <mxPoint x="240" y="300" as="sourcePoint" />
            <mxPoint x="290" y="250" as="targetPoint" />
          </mxGeometry>
        </mxCell>
        <mxCell id="GQBndkDP9qIrQhqpSyb7-8" value="" style="endArrow=classic;html=1;rounded=0;exitX=0.125;exitY=0.973;exitDx=0;exitDy=0;exitPerimeter=0;entryX=0.898;entryY=-0.06;entryDx=0;entryDy=0;entryPerimeter=0;" parent="1" source="GQBndkDP9qIrQhqpSyb7-5" target="GQBndkDP9qIrQhqpSyb7-6" edge="1">
          <mxGeometry width="50" height="50" relative="1" as="geometry">
            <mxPoint x="520" y="360" as="sourcePoint" />
            <mxPoint x="570" y="310" as="targetPoint" />
          </mxGeometry>
        </mxCell>
        <mxCell id="GQBndkDP9qIrQhqpSyb7-9" value="Choose starting shape and material" style="edgeLabel;html=1;align=center;verticalAlign=middle;resizable=0;points=[];" parent="GQBndkDP9qIrQhqpSyb7-8" vertex="1" connectable="0">
          <mxGeometry x="-0.0982" relative="1" as="geometry">
            <mxPoint as="offset" />
          </mxGeometry>
        </mxCell>
        <mxCell id="GQBndkDP9qIrQhqpSyb7-10" value="" style="rhombus;whiteSpace=wrap;html=1;" parent="1" vertex="1">
          <mxGeometry x="670" y="530" width="40" height="40" as="geometry" />
        </mxCell>
        <mxCell id="GQBndkDP9qIrQhqpSyb7-11" value="" style="endArrow=classic;html=1;rounded=0;exitX=0.5;exitY=1;exitDx=0;exitDy=0;" parent="1" target="GQBndkDP9qIrQhqpSyb7-10" edge="1">
          <mxGeometry width="50" height="50" relative="1" as="geometry">
            <mxPoint x="690" y="470" as="sourcePoint" />
            <mxPoint x="880" y="410" as="targetPoint" />
          </mxGeometry>
        </mxCell>
        <mxCell id="GQBndkDP9qIrQhqpSyb7-12" value="Update graphic display" style="endArrow=classic;html=1;rounded=0;entryX=-0.033;entryY=0.633;entryDx=0;entryDy=0;entryPerimeter=0;" parent="1" edge="1" target="R92QJJ_KU8hphDVG4ZgR-1">
          <mxGeometry width="50" height="50" relative="1" as="geometry">
            <mxPoint x="440" y="450" as="sourcePoint" />
            <mxPoint x="490" y="400" as="targetPoint" />
          </mxGeometry>
        </mxCell>
        <mxCell id="R92QJJ_KU8hphDVG4ZgR-1" value="Show output" style="rounded=1;whiteSpace=wrap;html=1;" vertex="1" parent="1">
          <mxGeometry x="630" y="410" width="120" height="60" as="geometry" />
        </mxCell>
        <mxCell id="R92QJJ_KU8hphDVG4ZgR-2" value="" style="endArrow=classic;html=1;rounded=0;exitX=0;exitY=0.25;exitDx=0;exitDy=0;entryX=1;entryY=0.25;entryDx=0;entryDy=0;" edge="1" parent="1" source="R92QJJ_KU8hphDVG4ZgR-1" target="GQBndkDP9qIrQhqpSyb7-6">
          <mxGeometry width="50" height="50" relative="1" as="geometry">
            <mxPoint x="400" y="360" as="sourcePoint" />
            <mxPoint x="450" y="310" as="targetPoint" />
          </mxGeometry>
        </mxCell>
        <mxCell id="R92QJJ_KU8hphDVG4ZgR-3" value="Print to 3D printer" style="endArrow=classic;html=1;rounded=0;exitX=0;exitY=0.5;exitDx=0;exitDy=0;" edge="1" parent="1" source="GQBndkDP9qIrQhqpSyb7-10">
          <mxGeometry width="50" height="50" relative="1" as="geometry">
            <mxPoint x="400" y="520" as="sourcePoint" />
            <mxPoint x="510" y="550" as="targetPoint" />
          </mxGeometry>
        </mxCell>
      </root>
    </mxGraphModel>
  </diagram>
</mxfile>
